<svg width="48" height="48" viewBox="0 0 48 48" fill="none" xmlns="http://www.w3.org/2000/svg">
<path d="M31.7103 34.244C27.5263 36.092 22.9943 35.334 21.2503 34.724C21.2503 35.144 21.2303 36.438 21.1543 38.284C21.0783 40.132 20.4903 41.298 20.2043 41.652C20.2363 42.806 20.2623 45.326 20.1103 46.172C19.9645 46.8564 19.6354 47.4882 19.1583 48H16.5903C16.8183 46.846 17.7003 46.108 18.1123 45.884C18.3403 43.498 17.8923 41.426 17.6363 40.69C17.3843 41.588 16.7623 43.67 16.3063 44.826C15.9329 45.7442 15.4543 46.616 14.8803 47.424H12.9783C12.8823 46.268 13.5183 45.884 13.9283 45.884C14.1183 45.53 14.5743 44.422 14.8803 42.804C15.1843 41.19 14.7523 38.156 14.5003 36.842V32.706C11.4563 31.07 10.3163 29.434 9.55429 27.606C8.94629 26.146 9.11029 23.92 9.27029 22.99C9.07829 22.638 8.52429 21.74 8.31829 20.49C8.03429 18.758 8.19229 17.508 8.31829 16.834C8.12829 16.642 7.74829 15.66 7.74829 13.274C7.74829 10.89 8.44629 9.652 8.79429 9.33V8.272C7.46229 8.176 6.13229 7.6 5.37029 6.83C4.61029 6.06 5.18029 4.906 5.65629 4.522C6.13229 4.136 6.60629 4.424 7.27229 4.232C7.93829 4.04 8.50829 3.848 8.79229 3.272C9.02429 2.806 8.57429 0.896 8.32029 0C9.46029 0.154 10.1903 1.154 10.4123 1.636V0C11.8383 0.674 14.4063 2.308 15.2623 5.868C15.9463 8.716 16.4343 14.686 16.5923 17.314C20.2383 17.346 24.8663 16.794 29.0503 17.7C32.8523 18.524 34.5643 20.2 36.5603 20.2C38.5583 20.2 39.7003 19.046 41.1243 20.008C42.5523 20.97 43.3123 23.664 43.1223 25.684C42.9703 27.3 41.7283 27.832 41.1263 27.896C40.3663 30.436 41.1263 32.866 41.6003 33.764V37.418C41.8223 37.738 42.2663 38.728 42.2663 40.112C42.2663 41.498 41.8223 42.42 41.6003 42.71C41.9803 44.864 41.4403 47.07 41.1243 47.904H38.5583C38.8623 47.134 39.3823 46.942 39.6043 46.942C40.0603 44.556 39.7303 42.356 39.5083 41.556C38.0643 40.708 37.1323 39.216 36.8463 38.574C36.8783 39.118 36.7883 40.632 36.1803 42.324C35.5723 44.018 34.6603 45.018 34.2803 45.306V47.326H31.7123C31.7123 46.096 32.4083 45.852 32.7583 45.884C33.2023 45.084 34.2783 43.864 34.2783 41.46C34.2783 39.43 32.8523 38.476 31.8063 36.65C31.3103 35.782 31.5523 34.694 31.7123 34.244H31.7103Z" fill="black" style="fill:black;fill-opacity:1;"/>
</svg>
